{
	"asset":{
		"generator":"Khronos glTF Blender I/O v3.5.30",
		"version":"2.0"
	},
	"scene":0,
	"scenes":[
		{
			"name":"Scene",
			"nodes":[
				0
			]
		}
	],
	"nodes":[
		{
			"mesh":0,
			"name":"m108",
			"rotation":[
				0.7071068286895752,
				0,
				0,
				0.7071068286895752
			],
			"translation":[
				0,
				1,
				0
			]
		}
	],
	"materials":[
		{
			"doubleSided":true,
			"name":"Material.001",
			"pbrMetallicRoughness":{
				"baseColorFactor":[
					0.015995951369404793,
					0.10702290385961533,
					0.42326751351356506,
					1
				],
				"metallicFactor":0,
				"roughnessFactor":0.5
			}
		},
		{
			"doubleSided":true,
			"name":"Material.002",
			"pbrMetallicRoughness":{
				"baseColorFactor":[
					0.01444306317716837,
					0.4286900758743286,
					0.7083757519721985,
					1
				],
				"metallicFactor":0,
				"roughnessFactor":0.5
			}
		},
		{
			"doubleSided":true,
			"name":"Material.003",
			"pbrMetallicRoughness":{
				"baseColorFactor":[
					0.09530694782733917,
					0.7011017203330994,
					0.04666528105735779,
					1
				],
				"metallicFactor":0,
				"roughnessFactor":0.5
			}
		}
	],
	"meshes":[
		{
			"name":"Circle.001",
			"primitives":[
				{
					"attributes":{
						"POSITION":0,
						"TEXCOORD_0":1,
						"NORMAL":2
					},
					"indices":3,
					"material":0
				},
				{
					"attributes":{
						"POSITION":4,
						"TEXCOORD_0":5,
						"NORMAL":6
					},
					"indices":7,
					"material":1
				},
				{
					"attributes":{
						"POSITION":8,
						"TEXCOORD_0":9,
						"NORMAL":10
					},
					"indices":11,
					"material":2
				}
			]
		}
	],
	"accessors":[
		{
			"bufferView":0,
			"componentType":5126,
			"count":60,
			"max":[
				0.5877852439880371,
				0.06000000983476639,
				0.80901700258255
			],
			"min":[
				-0.5877852439880371,
				-0.06000000983476639,
				-1
			],
			"type":"VEC3"
		},
		{
			"bufferView":1,
			"componentType":5126,
			"count":60,
			"type":"VEC2"
		},
		{
			"bufferView":2,
			"componentType":5126,
			"count":60,
			"type":"VEC3"
		},
		{
			"bufferView":3,
			"componentType":5123,
			"count":108,
			"type":"SCALAR"
		},
		{
			"bufferView":4,
			"componentType":5126,
			"count":31,
			"max":[
				0.9501774907112122,
				0.5729726552963257,
				0.3810858130455017
			],
			"min":[
				-0.9498339891433716,
				-0.33480578660964966,
				-0.3089137077331543
			],
			"type":"VEC3"
		},
		{
			"bufferView":5,
			"componentType":5126,
			"count":31,
			"type":"VEC2"
		},
		{
			"bufferView":6,
			"componentType":5126,
			"count":31,
			"type":"VEC3"
		},
		{
			"bufferView":7,
			"componentType":5123,
			"count":39,
			"type":"SCALAR"
		},
		{
			"bufferView":8,
			"componentType":5126,
			"count":18,
			"max":[
				-0.0005525350570678711,
				0.34968459606170654,
				0.2604128122329712
			],
			"min":[
				-0.9390103816986084,
				0.1496845930814743,
				-0.3021979331970215
			],
			"type":"VEC3"
		},
		{
			"bufferView":9,
			"componentType":5126,
			"count":18,
			"type":"VEC2"
		},
		{
			"bufferView":10,
			"componentType":5126,
			"count":18,
			"type":"VEC3"
		},
		{
			"bufferView":11,
			"componentType":5123,
			"count":24,
			"type":"SCALAR"
		}
	],
	"bufferViews":[
		{
			"buffer":0,
			"byteLength":720,
			"byteOffset":0,
			"target":34962
		},
		{
			"buffer":0,
			"byteLength":480,
			"byteOffset":720,
			"target":34962
		},
		{
			"buffer":0,
			"byteLength":720,
			"byteOffset":1200,
			"target":34962
		},
		{
			"buffer":0,
			"byteLength":216,
			"byteOffset":1920,
			"target":34963
		},
		{
			"buffer":0,
			"byteLength":372,
			"byteOffset":2136,
			"target":34962
		},
		{
			"buffer":0,
			"byteLength":248,
			"byteOffset":2508,
			"target":34962
		},
		{
			"buffer":0,
			"byteLength":372,
			"byteOffset":2756,
			"target":34962
		},
		{
			"buffer":0,
			"byteLength":78,
			"byteOffset":3128,
			"target":34963
		},
		{
			"buffer":0,
			"byteLength":216,
			"byteOffset":3208,
			"target":34962
		},
		{
			"buffer":0,
			"byteLength":144,
			"byteOffset":3424,
			"target":34962
		},
		{
			"buffer":0,
			"byteLength":216,
			"byteOffset":3568,
			"target":34962
		},
		{
			"buffer":0,
			"byteLength":48,
			"byteOffset":3784,
			"target":34963
		}
	],
	"buffers":[
		{
			"byteLength":3832,
			"uri":"data:application/octet-stream;base64,"
		}
	]
}
